<?xml version="1.0" encoding="utf-8"?>
<!-- Generator: Adobe Illustrator 21.0.0, SVG Export Plug-In . SVG Version: 6.00 Build 0)  -->
<svg version="1.1" id="Layer_1" xmlns="http://www.w3.org/2000/svg" xmlns:xlink="http://www.w3.org/1999/xlink" x="0px" y="0px"
	 viewBox="0 0 100 51.2" style="enable-background:new 0 0 100 51.2;" xml:space="preserve">
<style type="text/css">
	.st0{fill:none;stroke:#FFFFFF;stroke-width:0.3762;stroke-linecap:round;stroke-linejoin:round;stroke-miterlimit:10;}
	.st1{fill:#FFFFFF;stroke:#FFFFFF;stroke-width:0.3762;stroke-linecap:round;stroke-linejoin:round;stroke-miterlimit:10;}
</style>
<g>
	<g>
		<polyline class="st0" points="3.8,8.1 5.2,7.9 5.6,6.6 7.2,5.2 8.4,5.3 8.3,7.2 5.5,6.4 8.4,5.3 10.7,5.7 10.2,8.2 8.3,7.2 
			10.6,5.5 13.5,5.4 14.1,7.7 10.6,9.9 12.1,11.3 10.6,12.6 12.5,13.4 12.7,13.5 11.9,14.7 12.1,16.3 10.3,16.9 8.8,16.1 9.9,14.7 
			12.1,14.7 13.7,14.1 15.3,13.1 14,10.5 12.1,11.3 14.2,7.8 14,10.3 15.5,8.7 16.5,10.7 16.5,8 17.8,6.2 19,6.4 20.6,5 21.1,7 
			22,6.2 23.5,6.3 24.4,5.8 20.9,5 18.9,9 19.5,11.1 20.7,9.1 21.6,10.7 22.1,12.1 24.2,12.3 25.7,10.7 26.8,11.3 27.2,9.6 29.2,9 
			27,13 22.8,14.7 20.9,13.1 17.4,12.8 18.6,14.9 16.4,14.3 16.7,16.2 18.6,16.2 21.1,15.7 19.1,18.9 18.6,16.2 15.6,18.4 
			14.6,16.6 15.5,13.2 12.7,13.4 16.8,10.7 18.5,8.9 17.4,12.7 14.8,16.6 12.2,19.1 9.5,18.7 11.4,20.8 12.5,21.9 14,20.3 
			12.4,19.3 12.5,21.9 11.5,22.8 14.1,23.6 15.9,23.5 16.8,23.1 17,23 18.1,25.3 17.5,25.6 15.8,24.7 15.8,23.8 		"/>
		<polyline class="st0" points="30.1,11.3 29.2,9 27.4,9.5 30.1,11.7 27.2,12.8 		"/>
		<polyline class="st0" points="31.1,2.1 33.8,2.1 35.1,2.5 36.4,3.6 37.9,4.1 36.8,5.9 35.2,6.9 36.4,3.6 38.8,2 39.9,1.8 42,2.4 
			40.6,4.4 37.9,4.1 39.9,2.1 40.6,4.4 		"/>
		<polyline class="st0" points="13.9,10.4 16.5,10.6 17.4,12.8 15.3,13.1 16.4,14.3 13.7,14.1 12.1,16.2 14.6,16.7 16.5,16.2 
			15.5,18.4 12.3,19 		"/>
		<polyline class="st0" points="8.8,16.1 9.5,18.7 10.3,16.9 12.2,19.1 11.4,20.7 		"/>
		<polyline class="st0" points="24.2,12.3 20.6,13.2 21,15.6 22.8,14.9 18.5,14.7 21,15.9 19.1,18.9 15.5,18.4 14,20.3 12.1,16.2 
			9.9,14.9 10.6,12.6 10.6,9.8 10.1,8.2 14.1,7.7 10.6,5.6 13.6,5.4 16.2,5.6 		"/>
		<polyline class="st0" points="14.1,7.7 16.5,7.9 18.8,8.8 19,6.5 		"/>
		<polyline class="st0" points="20.3,28.5 20,30.4 20.3,33.3 22.1,33.5 22.1,35.8 24,34.4 22.8,32.2 23.9,30.2 21.2,27.5 22.3,26.8 
			25.2,26.9 26.3,27.9 24,28.2 25,32 26.9,31.8 28.6,29.3 31,31.6 28.5,32.2 26.7,34.2 24,34.4 23.8,37.9 26.6,37.6 28.8,34.4 
			31.1,34.8 32.4,33.8 29,34.2 29.3,36.3 32.3,37.6 29.6,38.4 30.2,40.6 28.5,41.9 27.2,40.3 25.3,41.8 23.5,40.4 24.2,43.7 
			26.9,45.1 24.7,45.3 26.1,48.5 27,44.9 25.4,42.1 28.5,42 29.5,38.5 26.6,37.5 23.8,40.3 23.8,38.1 26.6,34.4 25.1,32.2 
			26.2,27.8 28.6,29.3 28.5,32 32.9,33.8 33.7,36.1 32.5,37.4 30.3,40.5 27.4,40.1 27.2,45.1 24.7,45.2 24.2,43.9 25.2,42 
			23.5,40.3 27.2,40.1 26.6,37.6 22.1,36.1 20.1,33.2 22.8,32.2 20.4,28.4 21.2,27.3 23.9,28.1 27,32 28.7,34.2 26.7,34.5 
			29.6,38.4 31.1,35 33.8,36.1 		"/>
		<polyline class="st0" points="19.1,18.9 21.3,22.3 21.2,27.5 18,25.3 22.3,26.7 21.3,22.3 		"/>
		<polyline class="st0" points="85.7,42.2 85.5,39.1 88.5,40 89.7,37 92.1,35.8 92.9,37.4 94.8,38.3 95.6,35.6 96.5,38.3 96,40.5 
			95.9,43 93.9,43.6 92.5,42.4 91.4,40.2 89.1,42.3 85.7,42.2 88.5,40.1 92.9,37.4 96,40.5 91.4,40.1 92.9,37.4 93.9,43.6 96,40.5 
			92.5,42.4 91.5,42.2 88.6,40.1 		"/>
		<polyline class="st0" points="85.6,39.1 89.7,37.1 92.7,37.4 		"/>
		<g>
			<polyline class="st0" points="97.5,33.4 95.3,32.4 94.1,31.4 88.3,31.4 85.6,30.4 86.9,29.3 85.8,29.2 85.6,30.4 			"/>
			<polyline class="st0" points="83,25.5 81.4,28.2 81.7,30.3 82.3,31.4 85.8,30.5 			"/>
			<polyline class="st0" points="84.8,19.7 83.7,21.9 82.1,23.3 83,25.5 			"/>
			<polyline class="st0" points="83.9,17.6 79.3,18.8 80.8,21.9 82.4,19.5 85,19.8 86.7,19.3 88.1,16.8 87.3,16 87.1,14.9 
				84.7,15.7 83.8,13.1 88,11.8 84.4,10.1 83.8,7.3 86.4,7.8 			"/>
			<polyline class="st0" points="91.2,8.7 93.2,6.9 91.9,5.7 90.2,6.2 88,5.5 			"/>
			<polyline class="st0" points="83.2,25.4 81.5,24.8 80.8,21.9 77.8,20.8 75.7,21.3 74.1,22.3 73.3,24 73.8,25.2 73.8,25.3 
				73.3,26.7 72.4,25 73.9,25.3 			"/>
			<polyline class="st0" points="71.8,23.6 71.4,22.1 73.3,19.1 70.9,19.8 68.6,19.9 69.6,17.7 72.1,15.9 75.9,18.7 75.7,21.3 
				73.3,18.8 74.5,22.5 71.3,22.1 			"/>
			<line class="st0" x1="85.8" y1="29.2" x2="82.3" y2="31.4"/>
			<line class="st0" x1="86.9" y1="29.3" x2="94.1" y2="31.4"/>
		</g>
		<g>
			<polyline class="st0" points="87.9,5.7 86.5,7.9 84.4,10.1 91.2,8.8 92.9,10 93.2,7.1 90.1,6.2 91.2,8.8 87.9,12 90,12.4 
				87.1,14.6 84,13.1 83,15.5 83.9,17.5 84.7,19.7 80.7,21.7 75.7,18.5 77.9,16.3 75.3,15.6 78.1,14.1 80,12.9 81.2,15 79.5,18.8 
				83,15.4 80.7,9.7 77,9.9 74.5,12.7 78,14.1 77,10 74.6,7.5 75.9,5.7 78,5.5 80.5,6.5 82.9,5.3 83.9,7.4 80.7,9.7 80,12.9 
				77.9,16.3 79.4,18.8 77.8,20.8 			"/>
			<polyline class="st0" points="75.2,15.3 72,15.7 73.3,19 69.6,17.7 70.9,19.7 71.3,22.1 68.7,19.9 67,16.9 68.5,16 69.6,13.5 
				68.6,12.7 66.9,12.9 68.6,9.9 72,12.7 73.1,10.6 70.7,8.1 74.6,7.6 74.5,12.9 71.8,15.8 69.8,13.3 72.2,12.7 70.5,8.4 70.2,5.9 
				72,4.4 69.9,4.1 66.8,5.3 65.1,8.1 62.1,7.1 63,5.3 61.6,3.8 59.4,6.6 60.9,6.1 61.7,10.1 61.9,12.4 57.9,12.6 58.2,9.5 
				61.9,10.1 65.1,8 			"/>
			<polyline class="st0" points="56.6,20 60.4,20.5 62.4,20.3 64.1,22.7 62.4,24.4 59.4,23.8 56.9,22.3 56.6,20 			"/>
			<polyline class="st0" points="67.3,9.5 65.1,8 66.6,13.1 64.6,15.5 62,12.5 60.3,15.6 62.1,18 66.2,18.9 67,16.9 64.8,15.7 
				60.7,15.6 57.9,15.6 			"/>
			<polyline class="st0" points="54.1,18.8 51.1,19.1 52.9,21.1 50.6,23.6 48,21.8 48.5,18.7 45.4,18.4 42.8,20.3 45.2,21.7 
				46.5,20.2 45.8,24.4 42,22.3 41.8,23.4 42.4,25 43.6,27 46.2,27.2 48.7,26.1 45.8,24.4 48,21.8 48.7,26.1 51.9,26.1 54.4,24.2 
				52.9,21.1 56.6,20 62.4,24.4 62.7,27.5 61.2,29.5 58.8,29 57.7,27.4 59.8,26.2 61.2,29.5 60,31.2 57.9,32.7 55,32.7 56.9,29.4 
				54.7,29.8 53.9,28.1 56.2,26 59.4,23.8 59.8,26.2 58.8,29 56.9,29.4 			"/>
		</g>
		<polyline class="st0" points="53.7,2.3 52.9,2.8 52.8,5.8 51.4,7.3 49.7,7.6 51.4,9.8 52,12.1 50,13.2 49.4,11.3 47,12.9 46.6,15 
			45,15.2 47,12.9 50,13.2 51.4,9.8 54.8,9.7 55.6,11.7 55.3,13.9 53.1,14 54.8,9.5 56.2,5.9 52.8,5.8 54.6,9.6 58.3,9.5 56.2,5.9 
			59.5,6.6 58.3,9.5 55.7,11.6 57.9,12.6 61.7,10.1 66.9,12.9 61.9,12.4 57.8,15.5 60.4,20.5 62.1,18.1 62.4,20.4 66.2,18.9 
			64,22.7 68.6,19.9 66.2,18.9 64.6,15.5 62.2,18 		"/>
		<g>
			<polyline class="st0" points="66.8,12.9 68.6,15.8 69.6,17.7 67,16.9 66.7,12.8 67.3,9.5 68.5,9.9 70.7,8.1 67,5.3 62.9,5.3 
				60.9,6.1 62.2,7 66.8,5.1 70,5.8 74.7,7.5 72,4.4 75.2,4.6 75.8,5.5 76.7,4.6 78.1,5.4 77,9.9 73,10.6 74.7,7.5 80.5,6.5 
				80.6,9.7 82.9,5.3 84.5,5.3 86.4,7.8 87.9,11.8 90.2,6.1 87.9,5.5 84.6,5.3 83.8,7.3 			"/>
			<path class="st0" d="M67.3,9.5"/>
			<polyline class="st0" points="80.9,9.9 84.3,10.2 84,13 80,12.9 77.2,10.1 80.4,6.6 83.9,7.6 			"/>
		</g>
		<polyline class="st0" points="48.5,18.7 51,19 50.6,23.5 51.8,26 50.3,28.9 51.3,30.7 53.9,28.1 57.7,27.4 56.2,26 54.3,24.4 
			56.9,22.3 56.2,26 56.8,29.3 57.9,32.7 60.4,34.2 60.3,36.4 58.4,35.2 57.9,32.7 54.9,35.8 52.9,33.8 55.1,32.7 54.7,29.8 
			51.7,32.7 51.5,35.5 51.7,36.7 54.4,37.9 54.9,35.8 57.6,38 56.9,40.6 54.4,41.3 53,43 52.8,38.8 54.4,37.9 57.6,38 58.4,35.2 
			55.1,32.7 51.3,30.7 51.7,32.7 52.9,33.8 51.7,36.7 54.9,35.8 		"/>
		<polyline class="st0" points="86.7,19.3 85.7,17.9 83.8,17.5 87.3,16 84.7,15.8 82.9,15.4 81.1,15.1 77.8,16.4 78,14.1 		"/>
		<polyline class="st0" points="82.4,19.5 79.3,18.8 75.9,18.4 75.2,15.4 74.5,12.9 72.2,12.7 72,15.8 68.6,15.8 64.6,15.5 		"/>
		<polyline class="st0" points="42.7,20.2 42,22.3 45.2,21.7 45.8,24.2 42.4,25 		"/>
		<polyline class="st0" points="17.8,6.1 16.2,5.6 14.1,7.7 15.5,8.7 		"/>
		<polyline class="st0" points="90.5,17.6 92.2,16.7 92.1,14.8 90.5,17.6 		"/>
	</g>
	<g>
		<circle class="st1" cx="3.8" cy="8.1" r="0.7"/>
		<circle class="st1" cx="8.4" cy="5.3" r="0.5"/>
		<circle class="st1" cx="13.6" cy="5.4" r="0.6"/>
		<circle class="st1" cx="9.8" cy="14.8" r="0.6"/>
		<circle class="st1" cx="13.9" cy="10.4" r="0.6"/>
		<circle class="st1" cx="21" cy="7.1" r="0.5"/>
		<circle class="st1" cx="37.9" cy="4.1" r="0.6"/>
		<circle class="st1" cx="20.7" cy="5.1" r="0.6"/>
		<circle class="st1" cx="23.9" cy="28.1" r="0.6"/>
		<circle class="st1" cx="54.4" cy="41.3" r="0.6"/>
		<circle class="st1" cx="45.8" cy="24.2" r="0.6"/>
		<circle class="st1" cx="56.2" cy="26" r="0.7"/>
		<circle class="st1" cx="51.9" cy="26.1" r="0.6"/>
		<circle class="st1" cx="42.4" cy="25" r="0.6"/>
		<circle class="st1" cx="48.7" cy="26.1" r="0.6"/>
		<circle class="st1" cx="85.7" cy="42.2" r="0.3"/>
		<circle class="st1" cx="93.9" cy="43.6" r="0.3"/>
		<circle class="st1" cx="95.3" cy="32.3" r="0.6"/>
		<circle class="st1" cx="89.7" cy="37" r="0.6"/>
		<circle class="st1" cx="85.7" cy="30.4" r="0.6"/>
		<circle class="st1" cx="83" cy="25.5" r="0.6"/>
		<circle class="st1" cx="72" cy="15.9" r="0.6"/>
		<circle class="st1" cx="74.3" cy="22.3" r="0.6"/>
		<circle class="st1" cx="74.7" cy="7.5" r="0.6"/>
		<circle class="st1" cx="90.2" cy="6.2" r="0.6"/>
		<circle class="st1" cx="80.4" cy="6.5" r="0.6"/>
		<circle class="st1" cx="93" cy="6.8" r="0.6"/>
		<circle class="st1" cx="52.8" cy="5.7" r="0.6"/>
		<circle class="st1" cx="87.1" cy="14.6" r="0.6"/>
		<circle class="st1" cx="62.4" cy="38.4" r="0.6"/>
		<circle class="st1" cx="35.4" cy="6.9" r="0.6"/>
		<circle class="st1" cx="45" cy="15.2" r="0.6"/>
		<circle class="st1" cx="49.7" cy="7.6" r="0.6"/>
		<circle class="st1" cx="51.4" cy="7.3" r="0.6"/>
		<circle class="st1" cx="51.3" cy="9.9" r="0.6"/>
		<circle class="st1" cx="55.2" cy="13.8" r="0.6"/>
		<circle class="st1" cx="65.1" cy="7.9" r="0.6"/>
		<circle class="st1" cx="75.3" cy="15.5" r="0.6"/>
		<circle class="st1" cx="84.4" cy="10.1" r="0.6"/>
		<circle class="st1" cx="56.2" cy="5.9" r="0.6"/>
		<circle class="st1" cx="62.9" cy="36.8" r="0.3"/>
		<circle class="st1" cx="88.3" cy="31.4" r="0.3"/>
		<circle class="st1" cx="82.3" cy="31.4" r="0.3"/>
		<circle class="st1" cx="85.6" cy="39.1" r="0.3"/>
		<circle class="st1" cx="94.8" cy="38.3" r="0.3"/>
		<circle class="st1" cx="88.5" cy="40" r="0.6"/>
		<circle class="st1" cx="80.7" cy="21.7" r="0.6"/>
		<circle class="st1" cx="83.7" cy="21.9" r="0.6"/>
		<circle class="st1" cx="73.3" cy="26.7" r="0.3"/>
		<circle class="st1" cx="46.6" cy="15" r="0.5"/>
		<circle class="st1" cx="50.7" cy="23.6" r="0.6"/>
		<circle class="st1" cx="62.1" cy="18" r="0.4"/>
		<circle class="st1" cx="60.3" cy="36.4" r="0.3"/>
		<circle class="st1" cx="54.4" cy="38" r="0.3"/>
		<circle class="st1" cx="50.2" cy="28.8" r="0.3"/>
		<circle class="st1" cx="56.9" cy="22.3" r="0.4"/>
		<circle class="st1" cx="59.8" cy="26.2" r="0.3"/>
		<circle class="st1" cx="58.8" cy="29" r="0.3"/>
		<circle class="st1" cx="45.2" cy="21.7" r="0.3"/>
		<circle class="st1" cx="41.8" cy="23.4" r="0.3"/>
		<circle class="st1" cx="46.5" cy="20.2" r="0.3"/>
		<circle class="st1" cx="42" cy="22.3" r="0.5"/>
		<circle class="st1" cx="48" cy="21.8" r="0.6"/>
		<circle class="st1" cx="57.7" cy="27.4" r="0.3"/>
		<circle class="st1" cx="59.4" cy="23.8" r="0.4"/>
		<circle class="st1" cx="60.4" cy="34.2" r="0.3"/>
		<circle class="st1" cx="60" cy="31.2" r="0.3"/>
		<circle class="st1" cx="51.7" cy="32.7" r="0.4"/>
		<circle class="st1" cx="54.9" cy="35.8" r="0.7"/>
		<circle class="st1" cx="60.4" cy="20.5" r="0.6"/>
		<circle class="st1" cx="52.9" cy="21.1" r="0.6"/>
		<circle class="st1" cx="56.8" cy="29.3" r="0.6"/>
		<circle class="st1" cx="62.4" cy="24.4" r="0.6"/>
		<circle class="st1" cx="64.6" cy="15.5" r="0.6"/>
		<circle class="st1" cx="69.9" cy="4.1" r="0.3"/>
		<circle class="st1" cx="69.2" cy="2.1" r="0.4"/>
		<circle class="st1" cx="61.5" cy="3.8" r="0.3"/>
		<circle class="st1" cx="53.7" cy="2.3" r="0.5"/>
		<circle class="st1" cx="61.7" cy="10.1" r="0.3"/>
		<circle class="st1" cx="61.9" cy="12.4" r="0.6"/>
		<circle class="st1" cx="52.9" cy="2.8" r="0.4"/>
		<circle class="st1" cx="60.9" cy="6.1" r="0.4"/>
		<circle class="st1" cx="81.4" cy="28.2" r="0.3"/>
		<circle class="st1" cx="71.8" cy="23.6" r="0.3"/>
		<circle class="st1" cx="68.6" cy="19.9" r="0.6"/>
		<circle class="st1" cx="67.3" cy="9.5" r="0.4"/>
		<circle class="st1" cx="68.6" cy="12.7" r="0.3"/>
		<circle class="st1" cx="67" cy="16.9" r="0.3"/>
		<circle class="st1" cx="85.7" cy="17.9" r="0.3"/>
		<circle class="st1" cx="92.1" cy="14.8" r="0.3"/>
		<circle class="st1" cx="73.8" cy="25.3" r="0.3"/>
		<circle class="st1" cx="51.5" cy="35.5" r="0.3"/>
		<circle class="st1" cx="54.7" cy="29.8" r="0.3"/>
		<circle class="st1" cx="57.9" cy="32.7" r="0.3"/>
		<circle class="st1" cx="53.9" cy="28.1" r="0.3"/>
		<circle class="st1" cx="46.2" cy="27.2" r="0.6"/>
		<circle class="st1" cx="75.7" cy="21.3" r="0.3"/>
		<circle class="st1" cx="81.2" cy="15" r="0.3"/>
		<circle class="st1" cx="78" cy="14.1" r="0.6"/>
		<circle class="st1" cx="75.8" cy="18.5" r="0.6"/>
		<circle class="st1" cx="80.7" cy="9.7" r="0.3"/>
		<circle class="st1" cx="80" cy="12.9" r="0.6"/>
		<circle class="st1" cx="73.1" cy="10.6" r="0.3"/>
		<circle class="st1" cx="74.5" cy="12.8" r="0.3"/>
		<circle class="st1" cx="69.6" cy="17.7" r="0.4"/>
		<circle class="st1" cx="73.3" cy="24" r="0.3"/>
		<circle class="st1" cx="72.5" cy="25" r="0.3"/>
		<circle class="st1" cx="69.6" cy="13.3" r="0.6"/>
		<circle class="st1" cx="73.3" cy="19" r="0.7"/>
		<circle class="st1" cx="62.9" cy="5.3" r="0.4"/>
		<circle class="st1" cx="53.1" cy="14" r="0.4"/>
		<circle class="st1" cx="53" cy="43" r="0.4"/>
		<circle class="st1" cx="56.9" cy="40.6" r="0.6"/>
		<circle class="st1" cx="52.9" cy="33.8" r="0.7"/>
		<circle class="st1" cx="51.7" cy="36.6" r="0.6"/>
		<circle class="st1" cx="61.2" cy="29.5" r="0.6"/>
		<circle class="st1" cx="55.1" cy="32.7" r="0.6"/>
		<circle class="st1" cx="57.4" cy="37.9" r="0.6"/>
		<circle class="st1" cx="52.8" cy="38.9" r="0.6"/>
		<circle class="st1" cx="70.9" cy="19.8" r="0.4"/>
		<circle class="st1" cx="82.4" cy="19.5" r="0.3"/>
		<circle class="st1" cx="93.9" cy="8.1" r="0.3"/>
		<circle class="st1" cx="91.9" cy="5.7" r="0.3"/>
		<circle class="st1" cx="84.5" cy="5.3" r="0.3"/>
		<circle class="st1" cx="86.5" cy="7.9" r="0.6"/>
		<circle class="st1" cx="87.9" cy="5.7" r="0.6"/>
		<circle class="st1" cx="78.1" cy="5.5" r="0.7"/>
		<circle class="st1" cx="84" cy="7.4" r="0.6"/>
		<circle class="st1" cx="87.3" cy="16" r="0.3"/>
		<circle class="st1" cx="88.5" cy="25.2" r="0.3"/>
		<circle class="st1" cx="76" cy="5.7" r="0.6"/>
		<circle class="st1" cx="86.7" cy="19.3" r="0.3"/>
		<circle class="st1" cx="83" cy="15.5" r="0.3"/>
		<circle class="st1" cx="76.7" cy="4.6" r="0.3"/>
		<circle class="st1" cx="75.2" cy="4.6" r="0.3"/>
		<circle class="st1" cx="88" cy="16.7" r="0.3"/>
		<circle class="st1" cx="89.2" cy="25.8" r="0.3"/>
		<circle class="st1" cx="90.5" cy="17.6" r="0.6"/>
		<circle class="st1" cx="82.9" cy="5.3" r="0.6"/>
		<circle class="st1" cx="77.9" cy="16.3" r="0.3"/>
		<circle class="st1" cx="77.8" cy="20.8" r="0.6"/>
		<circle class="st1" cx="71.4" cy="22.1" r="0.6"/>
		<circle class="st1" cx="85.8" cy="29.2" r="0.3"/>
		<circle class="st1" cx="79.5" cy="18.8" r="0.6"/>
		<circle class="st1" cx="84" cy="13.1" r="0.6"/>
		<circle class="st1" cx="84.7" cy="15.8" r="0.6"/>
		<circle class="st1" cx="82.1" cy="23.3" r="0.3"/>
		<circle class="st1" cx="92.2" cy="16.7" r="0.3"/>
		<circle class="st1" cx="81.7" cy="30.3" r="0.3"/>
		<circle class="st1" cx="90" cy="12.4" r="0.3"/>
		<circle class="st1" cx="92.9" cy="10" r="0.6"/>
		<circle class="st1" cx="91.2" cy="8.7" r="0.6"/>
		<circle class="st1" cx="83.9" cy="17.6" r="0.5"/>
		<circle class="st1" cx="57.9" cy="12.6" r="0.3"/>
		<circle class="st1" cx="68.5" cy="9.9" r="0.6"/>
		<circle class="st1" cx="70.2" cy="5.8" r="0.5"/>
		<circle class="st1" cx="58.2" cy="9.5" r="0.6"/>
		<circle class="st1" cx="55.6" cy="11.7" r="0.4"/>
		<circle class="st1" cx="70.7" cy="8.1" r="0.6"/>
		<circle class="st1" cx="60.4" cy="15.6" r="0.6"/>
		<circle class="st1" cx="52" cy="12.1" r="0.6"/>
		<circle class="st1" cx="54.3" cy="24.4" r="0.6"/>
		<circle class="st1" cx="54.1" cy="18.9" r="0.6"/>
		<circle class="st1" cx="42.8" cy="20.3" r="0.6"/>
		<circle class="st1" cx="51" cy="19" r="0.6"/>
		<circle class="st1" cx="66.2" cy="18.9" r="0.6"/>
		<circle class="st1" cx="68.6" cy="15.8" r="0.6"/>
		<circle class="st1" cx="64" cy="22.7" r="0.6"/>
		<circle class="st1" cx="56.6" cy="20" r="0.6"/>
		<circle class="st1" cx="62.7" cy="27.5" r="0.6"/>
		<circle class="st1" cx="66.8" cy="12.9" r="0.6"/>
		<circle class="st1" cx="62.4" cy="20.3" r="0.6"/>
		<circle class="st1" cx="62.3" cy="7" r="0.6"/>
		<circle class="st1" cx="54.7" cy="9.7" r="0.6"/>
		<circle class="st1" cx="57.8" cy="15.5" r="0.6"/>
		<circle class="st1" cx="59.4" cy="6.6" r="0.6"/>
		<circle class="st1" cx="66.8" cy="5.3" r="0.6"/>
		<circle class="st1" cx="49.4" cy="11.3" r="0.5"/>
		<circle class="st1" cx="50" cy="13.2" r="0.6"/>
		<circle class="st1" cx="46.6" cy="10.8" r="0.6"/>
		<circle class="st1" cx="47" cy="12.8" r="0.5"/>
		<circle class="st1" cx="45.5" cy="18.5" r="0.6"/>
		<circle class="st1" cx="43.6" cy="27" r="0.6"/>
		<circle class="st1" cx="51.4" cy="30.8" r="0.6"/>
		<circle class="st1" cx="86.8" cy="29.4" r="0.3"/>
		<circle class="st1" cx="91.4" cy="40.1" r="0.5"/>
		<circle class="st1" cx="92.5" cy="42.4" r="0.3"/>
		<circle class="st1" cx="91.5" cy="42.2" r="0.4"/>
		<circle class="st1" cx="89.1" cy="42.3" r="0.3"/>
		<circle class="st1" cx="97.5" cy="33.4" r="0.4"/>
		<circle class="st1" cx="92.9" cy="37.4" r="0.6"/>
		<circle class="st1" cx="94.1" cy="31.4" r="0.3"/>
		<circle class="st1" cx="95.6" cy="35.6" r="0.3"/>
		<circle class="st1" cx="92.1" cy="35.8" r="0.3"/>
		<circle class="st1" cx="96.5" cy="38.3" r="0.5"/>
		<circle class="st1" cx="95.8" cy="43" r="0.6"/>
		<circle class="st1" cx="77" cy="9.9" r="0.6"/>
		<circle class="st1" cx="84.7" cy="19.7" r="0.6"/>
		<circle class="st1" cx="95.9" cy="40.6" r="0.6"/>
		<circle class="st1" cx="87.9" cy="12" r="0.6"/>
		<circle class="st1" cx="72" cy="4.4" r="0.6"/>
		<circle class="st1" cx="25.4" cy="41.8" r="0.6"/>
		<circle class="st1" cx="32.6" cy="33.8" r="0.6"/>
		<circle class="st1" cx="28.6" cy="29.3" r="0.6"/>
		<circle class="st1" cx="21.6" cy="10.6" r="0.6"/>
		<circle class="st1" cx="21" cy="15.7" r="0.6"/>
		<circle class="st1" cx="12.5" cy="21.9" r="0.6"/>
		<circle class="st1" cx="19.5" cy="11.1" r="0.3"/>
		<circle class="st1" cx="9.5" cy="18.7" r="0.6"/>
		<circle class="st1" cx="24.4" cy="5.8" r="0.3"/>
		<circle class="st1" cx="13.7" cy="14.1" r="0.3"/>
		<circle class="st1" cx="36.8" cy="5.9" r="0.3"/>
		<circle class="st1" cx="36.4" cy="3.6" r="0.3"/>
		<circle class="st1" cx="33.8" cy="2.1" r="0.3"/>
		<circle class="st1" cx="39.9" cy="1.8" r="0.6"/>
		<circle class="st1" cx="40.6" cy="4.4" r="0.6"/>
		<circle class="st1" cx="17.4" cy="12.8" r="0.3"/>
		<circle class="st1" cx="22" cy="6.2" r="0.3"/>
		<circle class="st1" cx="8.8" cy="16.1" r="0.5"/>
		<circle class="st1" cx="14.6" cy="16.7" r="0.3"/>
		<circle class="st1" cx="11.9" cy="14.7" r="0.3"/>
		<circle class="st1" cx="10.6" cy="12.6" r="0.6"/>
		<circle class="st1" cx="10.6" cy="9.8" r="0.3"/>
		<circle class="st1" cx="5.2" cy="7.8" r="0.4"/>
		<circle class="st1" cx="5.6" cy="6.6" r="0.6"/>
		<circle class="st1" cx="15.5" cy="8.7" r="0.3"/>
		<circle class="st1" cx="7.2" cy="5.2" r="0.3"/>
		<circle class="st1" cx="17.8" cy="6.1" r="0.4"/>
		<circle class="st1" cx="17.8" cy="6.1" r="0.3"/>
		<circle class="st1" cx="16.2" cy="5.6" r="0.3"/>
		<circle class="st1" cx="10.1" cy="8.2" r="0.3"/>
		<circle class="st1" cx="8.3" cy="7.2" r="0.3"/>
		<circle class="st1" cx="10.6" cy="5.6" r="0.6"/>
		<circle class="st1" cx="22.1" cy="12.1" r="0.3"/>
		<circle class="st1" cx="16.4" cy="14.3" r="0.3"/>
		<circle class="st1" cx="26.2" cy="27.8" r="0.3"/>
		<circle class="st1" cx="28.5" cy="32.2" r="0.3"/>
		<circle class="st1" cx="29.3" cy="36.3" r="0.3"/>
		<circle class="st1" cx="23.7" cy="38" r="0.6"/>
		<circle class="st1" cx="26.9" cy="45.1" r="0.6"/>
		<circle class="st1" cx="27.2" cy="40.3" r="0.6"/>
		<circle class="st1" cx="30.2" cy="40.6" r="0.6"/>
		<circle class="st1" cx="26.9" cy="31.8" r="0.3"/>
		<circle class="st1" cx="22.4" cy="26.7" r="0.3"/>
		<circle class="st1" cx="31" cy="34.8" r="0.3"/>
		<circle class="st1" cx="24.2" cy="43.7" r="0.3"/>
		<circle class="st1" cx="26.3" cy="49.8" r="0.3"/>
		<circle class="st1" cx="24.7" cy="45.3" r="0.3"/>
		<circle class="st1" cx="23.5" cy="40.4" r="0.6"/>
		<circle class="st1" cx="20.3" cy="33.3" r="0.3"/>
		<circle class="st1" cx="22.1" cy="33.5" r="0.3"/>
		<circle class="st1" cx="23.9" cy="30.2" r="0.3"/>
		<circle class="st1" cx="33.7" cy="36.1" r="0.3"/>
		<circle class="st1" cx="25.1" cy="26.8" r="0.3"/>
		<circle class="st1" cx="20.3" cy="28.4" r="0.3"/>
		<circle class="st1" cx="17.4" cy="25.7" r="0.3"/>
		<circle class="st1" cx="15.8" cy="24.7" r="0.3"/>
		<circle class="st1" cx="11.6" cy="22.8" r="0.3"/>
		<circle class="st1" cx="14" cy="20.3" r="0.3"/>
		<circle class="st1" cx="11.4" cy="20.8" r="0.3"/>
		<circle class="st1" cx="26.6" cy="34.3" r="0.6"/>
		<circle class="st1" cx="22.8" cy="32.2" r="0.6"/>
		<circle class="st1" cx="25" cy="32" r="0.3"/>
		<circle class="st1" cx="29.5" cy="38.5" r="0.6"/>
		<circle class="st1" cx="22.1" cy="35.8" r="0.6"/>
		<circle class="st1" cx="24" cy="34.4" r="0.6"/>
		<circle class="st1" cx="31" cy="31.5" r="0.6"/>
		<circle class="st1" cx="19" cy="6.4" r="0.6"/>
		<circle class="st1" cx="10.3" cy="16.9" r="0.3"/>
		<circle class="st1" cx="18.6" cy="16.2" r="0.3"/>
		<circle class="st1" cx="15.5" cy="18.4" r="0.7"/>
		<circle class="st1" cx="12.1" cy="16.2" r="0.6"/>
		<circle class="st1" cx="20.7" cy="9.1" r="0.3"/>
		<circle class="st1" cx="29.2" cy="9" r="0.3"/>
		<circle class="st1" cx="29.9" cy="6.4" r="0.5"/>
		<circle class="st1" cx="27" cy="11.3" r="0.3"/>
		
			<ellipse transform="matrix(0.9981 -6.147945e-02 6.147945e-02 0.9981 -0.3427 1.4628)" class="st1" cx="23.6" cy="6.3" rx="0.5" ry="0.5"/>
		<circle class="st1" cx="44.9" cy="10.5" r="0.3"/>
		<circle class="st1" cx="14.3" cy="23.6" r="0.3"/>
		<circle class="st1" cx="18" cy="25.3" r="0.3"/>
		<circle class="st1" cx="15.9" cy="23.6" r="0.3"/>
		<circle class="st1" cx="38.7" cy="2" r="0.3"/>
		<circle class="st1" cx="30.4" cy="5.4" r="0.3"/>
		<circle class="st1" cx="31.1" cy="2.1" r="0.3"/>
		<circle class="st1" cx="25.7" cy="10.7" r="0.3"/>
		<circle class="st1" cx="16.9" cy="23.1" r="0.3"/>
		<circle class="st1" cx="16.5" cy="10.6" r="0.6"/>
		<circle class="st1" cx="12.1" cy="11.3" r="0.3"/>
		<circle class="st1" cx="16.5" cy="7.9" r="0.3"/>
		<circle class="st1" cx="27.4" cy="9.5" r="0.6"/>
		<circle class="st1" cx="24.2" cy="12.3" r="0.3"/>
		<circle class="st1" cx="20" cy="30.4" r="0.6"/>
		<circle class="st1" cx="28.9" cy="34.3" r="0.7"/>
		<circle class="st1" cx="26.6" cy="37.5" r="0.6"/>
		<circle class="st1" cx="58.4" cy="35.2" r="0.6"/>
		<circle class="st1" cx="72.2" cy="12.7" r="0.6"/>
		<circle class="st1" cx="32.3" cy="37.5" r="0.6"/>
		<circle class="st1" cx="48.5" cy="18.7" r="0.7"/>
		<circle class="st1" cx="20.7" cy="13.3" r="0.5"/>
		<circle class="st1" cx="42" cy="2.4" r="0.6"/>
		<circle class="st1" cx="16.5" cy="16.2" r="0.3"/>
		<circle class="st1" cx="14.1" cy="7.7" r="0.6"/>
		<circle class="st1" cx="12.2" cy="19.1" r="0.7"/>
		<circle class="st1" cx="18.8" cy="8.8" r="0.6"/>
		<circle class="st1" cx="30.1" cy="11.5" r="0.6"/>
		<circle class="st1" cx="18.5" cy="14.7" r="0.6"/>
		<circle class="st1" cx="21.3" cy="22.3" r="0.6"/>
		<circle class="st1" cx="19" cy="18.9" r="0.6"/>
		<circle class="st1" cx="23" cy="14.7" r="0.6"/>
		<circle class="st1" cx="15.3" cy="13.1" r="0.6"/>
		<circle class="st1" cx="12.5" cy="13.4" r="0.6"/>
		<circle class="st1" cx="27" cy="13" r="0.6"/>
		<circle class="st1" cx="35.1" cy="2.6" r="0.3"/>
		<circle class="st1" cx="28.5" cy="41.9" r="0.3"/>
		<circle class="st1" cx="21.2" cy="27.4" r="0.3"/>
		<circle class="st1" cx="26.1" cy="48.5" r="0.3"/>
	</g>
</g>
</svg>
