<?xml version="1.0" encoding="utf-8"?>
<!-- Generator: Adobe Illustrator 21.0.0, SVG Export Plug-In . SVG Version: 6.00 Build 0)  -->
<svg version="1.1" xmlns="http://www.w3.org/2000/svg" xmlns:xlink="http://www.w3.org/1999/xlink" x="0px" y="0px"
	 viewBox="0 0 100 100" style="enable-background:new 0 0 100 100;" xml:space="preserve">
<style type="text/css">
	.st0{display:none;}
	.st1{display:inline;}
	.st2{fill:none;stroke:#30A7E9;stroke-width:0.9051;stroke-linecap:round;stroke-linejoin:round;}
	.st3{fill:none;stroke:#30A7E9;stroke-width:0.9051;stroke-linecap:round;stroke-linejoin:round;stroke-dasharray:1.5736,1.5736;}
	.st4{fill:#FFFFFF;stroke:#30A7E9;stroke-width:0.7383;stroke-linecap:round;stroke-linejoin:round;stroke-miterlimit:10;}
	.st5{fill:#FFFFFF;stroke:#30A7E9;stroke-width:0.6034;stroke-linecap:round;stroke-linejoin:round;stroke-miterlimit:10;}
	
		.st6{display:inline;fill:#FFFFFF;stroke:#30A7E9;stroke-width:0.9051;stroke-linecap:round;stroke-linejoin:round;stroke-miterlimit:10;}
	.st7{fill:#30A7E9;}
	.st8{font-family:'OstrichSans-Black';}
	.st9{font-size:5.5015px;}
	.st10{fill:none;stroke:#30A7E9;stroke-width:0.8252;stroke-linecap:square;stroke-linejoin:round;stroke-miterlimit:10;}
	.st11{fill:none;stroke:#30A7E9;stroke-width:0.7333;stroke-linecap:round;stroke-linejoin:round;}
	.st12{fill:none;stroke:#30A7E9;stroke-width:0.7333;stroke-linecap:round;stroke-linejoin:round;stroke-dasharray:1.2748,1.2748;}
	.st13{fill:#FFFFFF;stroke:#30A7E9;stroke-width:1.0283;stroke-linecap:round;stroke-linejoin:round;stroke-miterlimit:10;}
	
		.st14{display:inline;fill:#FFFFFF;stroke:#30A7E9;stroke-width:1.7518;stroke-linecap:round;stroke-linejoin:round;stroke-miterlimit:10;}
	.st15{clip-path:url(#SVGID_2_);}
	
		.st16{fill-rule:evenodd;clip-rule:evenodd;fill:none;stroke:#30A7E9;stroke-width:0.4204;stroke-linecap:round;stroke-linejoin:round;stroke-miterlimit:10;}
	
		.st17{fill-rule:evenodd;clip-rule:evenodd;fill:#FFFFFF;stroke:#30A7E9;stroke-width:0.4204;stroke-linecap:round;stroke-linejoin:round;stroke-miterlimit:10;}
	.st18{fill:none;stroke:#30A7E9;stroke-width:0.9109;stroke-linecap:round;stroke-linejoin:round;}
	.st19{fill:none;stroke:#30A7E9;stroke-width:0.9109;stroke-linecap:round;stroke-linejoin:round;stroke-dasharray:1.5837,1.5837;}
	
		.st20{display:inline;fill:#FFFFFF;stroke:#30A7E9;stroke-width:0.911;stroke-linecap:round;stroke-linejoin:round;stroke-miterlimit:10;}
	
		.st21{display:inline;fill:#FFFFFF;stroke:#30A7E9;stroke-width:0.9109;stroke-linecap:round;stroke-linejoin:round;stroke-miterlimit:10;}
	
		.st22{display:inline;fill:#FFFFFF;stroke:#30A7E9;stroke-width:1.2789;stroke-linecap:round;stroke-linejoin:round;stroke-miterlimit:10;}
	.st23{font-size:30.5526px;}
	.st24{fill:#FFFFFF;stroke:#30A7E9;stroke-width:1.4139;stroke-linecap:round;stroke-linejoin:round;stroke-miterlimit:10;}
	.st25{fill:#FFFFFF;stroke:#30A7E9;stroke-width:0.911;stroke-linecap:round;stroke-linejoin:round;stroke-miterlimit:10;}
</style>
<g id="Layer_1" class="st0">
	<g class="st1">
		<g>
			<path class="st2" d="M18.2,63.5c0,0,0.2,0.2,0.5,0.6"/>
			<path class="st3" d="M19.8,65.2c3.4,3.4,12.4,10,25.1,1.4"/>
			<path class="st2" d="M45.5,66.2c0.2-0.1,0.4-0.3,0.6-0.4"/>
		</g>
	</g>
	<g class="st1">
		<g>
			<polygon class="st4" points="4.6,39.3 4.6,57 15.8,57 15.8,55 17.7,55 17.7,39.3 			"/>
			<polygon class="st4" points="15.8,57 17.7,55 15.8,55 			"/>
		</g>
		<rect x="6.8" y="42.4" class="st4" width="9.1" height="2.2"/>
		<line class="st4" x1="9.7" y1="46.5" x2="13" y2="46.5"/>
		<line class="st4" x1="7.2" y1="48.8" x2="15.5" y2="48.8"/>
		<line class="st4" x1="7.2" y1="50.4" x2="15.5" y2="50.4"/>
		<line class="st4" x1="7.2" y1="52.1" x2="15.5" y2="52.1"/>
		<line class="st4" x1="7.2" y1="53.7" x2="15.5" y2="53.7"/>
	</g>
	<g class="st1">
		<g>
			<path class="st2" d="M68.2,53.1c0,0,0.3,0,0.8,0"/>
			<path class="st3" d="M70.6,52.9c4.8-0.6,15.4-3.8,16.3-19.1"/>
			<path class="st2" d="M86.9,33c0-0.2,0-0.5,0-0.8"/>
		</g>
	</g>
	<g class="st1">
		<g>
			<polygon class="st5" points="85.1,29.8 96.5,17.6 85.1,24.4 			"/>
			<polygon class="st5" points="77.4,22.4 96.5,17.6 92.3,26.9 87,25 85.1,29.8 83.2,23.7 			"/>
			<path class="st5" d="M85.1,29.8"/>
			<polyline class="st5" points="87,25 96.5,17.6 83.2,23.7 			"/>
			<path class="st5" d="M85.1,29.8"/>
		</g>
	</g>
	<rect x="28.9" y="17.9" class="st6" width="44.8" height="63.6"/>
	<rect x="32.5" y="21.6" class="st6" width="37.5" height="53.2"/>
	<circle class="st6" cx="51.3" cy="78.1" r="1.3"/>
	<g class="st1">
		<g>
			<text transform="matrix(1 0 0 1 35.4756 40.4585)"><tspan x="0" y="0" class="st7 st8 st9">1</tspan><tspan x="0" y="9.6" class="st7 st8 st9">2</tspan><tspan x="0" y="19.3" class="st7 st8 st9">3</tspan></text>
		</g>
		<line class="st10" x1="40.8" y1="37.2" x2="66.7" y2="37.2"/>
		<line class="st10" x1="40.8" y1="47.1" x2="66.7" y2="47.1"/>
		<line class="st10" x1="40.8" y1="56.3" x2="66.7" y2="56.3"/>
		<line class="st10" x1="40.8" y1="37.2" x2="66.7" y2="37.2"/>
		<line class="st10" x1="40.8" y1="39.9" x2="61.2" y2="39.9"/>
		<line class="st10" x1="40.8" y1="49.8" x2="57.6" y2="49.8"/>
		<line class="st10" x1="40.8" y1="59" x2="63.9" y2="59"/>
	</g>
</g>
<g id="Layer_2" class="st0">
	<g class="st1">
		<g>
			<path class="st11" d="M74,53.3c0,0,0.2,0,0.6,0"/>
			<path class="st12" d="M75.8,53.2c3.9-0.5,12.5-3,13.2-15.5"/>
			<path class="st11" d="M89.1,37.1c0-0.2,0-0.4,0-0.6"/>
		</g>
	</g>
	<g class="st1">
		<ellipse class="st13" cx="89.7" cy="21.2" rx="4.6" ry="5.6"/>
		<g>
			<path class="st13" d="M89.7,28.4c-4.8,0-8.7,2.4-8.7,5.4h17.3C98.3,30.8,94.4,28.4,89.7,28.4z"/>
		</g>
	</g>
	<g class="st1">
		<ellipse class="st13" cx="10.1" cy="63.9" rx="4.6" ry="5.6"/>
		<g>
			<path class="st13" d="M10.1,71.2c-4.8,0-8.7,2.4-8.7,5.4h17.3C18.8,73.6,14.9,71.2,10.1,71.2z"/>
		</g>
	</g>
	<circle class="st14" cx="51.8" cy="56.9" r="29.1"/>
	<g class="st1">
		<defs>
			<circle id="SVGID_1_" cx="51.8" cy="56.9" r="29.1"/>
		</defs>
		<clipPath id="SVGID_2_">
			<use xlink:href="#SVGID_1_"  style="overflow:visible;"/>
		</clipPath>
		<g class="st15">
			<g>
				<polyline class="st16" points="20.6,38.3 22.1,38 22.6,36.6 24.4,35 25.7,35.1 25.6,37.3 22.4,36.4 25.7,35.1 28.3,35.6 
					27.7,38.3 25.6,37.3 28.2,35.4 31.4,35.3 32,37.9 28.2,40.2 29.8,41.9 28.1,43.3 30.3,44.2 30.5,44.2 29.6,45.6 29.8,47.4 
					27.8,48.1 26.2,47.2 27.4,45.7 29.8,45.6 31.6,45 33.4,43.8 31.9,40.9 29.8,41.9 32.2,37.9 32,40.7 33.7,39 34.8,41.2 
					34.7,38.1 36.2,36.1 37.5,36.4 39.3,34.8 39.9,37.1 40.9,36.1 42.5,36.2 43.6,35.7 39.6,34.8 37.4,39.2 38.1,41.6 39.5,39.4 
					40.5,41.2 41,42.7 43.4,43 45,41.2 46.3,41.9 46.8,39.9 49,39.2 46.4,43.8 41.9,45.6 39.7,43.8 35.7,43.6 37.1,45.8 34.7,45.2 
					34.9,47.3 37.1,47.3 39.9,46.8 37.7,50.4 37.1,47.3 33.7,49.8 32.6,47.7 33.6,44 30.5,44.1 35.1,41.2 37,39.1 35.8,43.4 
					32.9,47.7 29.9,50.6 26.9,50.1 29,52.4 30.3,53.7 31.9,51.9 30.2,50.8 30.3,53.7 29.1,54.6 32.1,55.6 34.1,55.4 35.1,55 
					35.3,55 36.5,57.5 35.9,57.8 34,56.8 34,55.8 				"/>
				<polyline class="st16" points="50,41.9 49,39.2 46.9,39.9 50,42.3 46.7,43.5 				"/>
				<polyline class="st16" points="51.1,31.5 54.1,31.5 55.5,32 57,33.2 58.7,33.8 57.4,35.8 55.7,36.9 57,33.2 59.7,31.4 
					60.9,31.2 63.3,31.9 61.7,34.2 58.7,33.8 60.9,31.6 61.7,34.2 				"/>
				<polyline class="st16" points="31.9,40.8 34.8,41 35.8,43.6 33.5,43.8 34.7,45.2 31.6,45 29.8,47.4 32.6,47.8 34.8,47.3 
					33.6,49.8 30.1,50.4 				"/>
				<polyline class="st16" points="26.2,47.2 26.9,50.1 27.8,48.1 29.9,50.6 29.1,52.3 				"/>
				<polyline class="st16" points="43.4,43 39.3,43.9 39.7,46.7 41.9,45.8 37,45.6 39.8,47 37.7,50.3 33.6,49.8 31.9,51.9 
					29.8,47.4 27.4,45.8 28.1,43.3 28.1,40.2 27.6,38.4 32,37.8 28.2,35.5 31.5,35.2 34.4,35.5 				"/>
				<polyline class="st16" points="32.1,37.8 34.8,38 37.3,39.1 37.5,36.5 				"/>
				<polyline class="st16" points="39,61 38.7,63.2 39,66.4 41,66.7 41,69.2 43.1,67.7 41.8,65.2 43,63 40,60 41.2,59.2 44.5,59.2 
					45.7,60.4 43.1,60.7 44.3,65 46.3,64.8 48.3,62 51,64.5 48.1,65.2 46.1,67.5 43.1,67.7 42.9,71.5 46.1,71.2 48.5,67.7 51,68.1 
					52.5,67 48.7,67.4 49.1,69.8 52.4,71.2 49.3,72.2 50,74.5 48.1,76 46.7,74.3 44.6,76 42.6,74.3 43.3,78.1 46.4,79.6 43.9,79.8 
					45.5,83.4 46.5,79.4 44.7,76.2 48.2,76.1 49.3,72.2 46.1,71.2 42.9,74.2 42.9,71.8 46,67.7 44.4,65.2 45.6,60.3 48.3,62 
					48.1,65 53,67 53.9,69.5 52.6,70.9 50.2,74.4 46.9,74.1 46.7,79.6 43.9,79.8 43.3,78.2 44.5,76.1 42.5,74.3 46.7,74.1 
					46.1,71.2 41,69.5 38.8,66.4 41.8,65.2 39.1,60.9 40,59.7 43,60.6 46.5,65 48.4,67.5 46.2,67.7 49.3,72.2 51,68.3 54.1,69.5 
									"/>
				<polyline class="st16" points="37.7,50.3 40.1,54.1 40,60 36.5,57.5 41.3,59.1 40.1,54.1 				"/>
				<polyline class="st16" points="112.1,76.4 111.9,72.9 115.3,73.9 116.5,70.6 119.3,69.2 120.1,71 122.3,72 123.2,69 124.2,72.1 
					123.6,74.5 123.5,77.2 121.2,77.9 119.7,76.6 118.5,74.1 115.9,76.5 112.1,76.4 115.3,74.1 120.1,71 123.6,74.5 118.5,74.1 
					120.1,71 121.2,77.9 123.6,74.5 119.7,76.6 118.6,76.4 115.3,74 				"/>
				<polyline class="st16" points="112,72.9 116.6,70.6 120,71 				"/>
				<g>
					<polyline class="st16" points="125.3,66.5 122.8,65.4 121.5,64.3 115,64.3 112,63.2 113.4,62 112.2,61.8 112,63.2 					"/>
					<polyline class="st16" points="109,57.7 107.3,60.7 107.7,63.1 108.3,64.3 112.2,63.3 					"/>
					<polyline class="st16" points="111.1,51.2 109.9,53.7 108,55.3 109,57.7 					"/>
					<polyline class="st16" points="110.1,48.8 105,50.2 106.7,53.7 108.5,51 111.3,51.3 113.2,50.8 114.7,48 113.9,47.1 
						113.6,45.8 111,46.7 110,43.8 114.7,42.4 110.6,40.5 110,37.4 112.9,37.9 					"/>
					<polyline class="st16" points="118.2,38.9 120.4,36.9 119,35.6 117.1,36.1 114.6,35.3 					"/>
					<polyline class="st16" points="109.3,57.6 107.4,56.9 106.7,53.7 103.2,52.5 100.9,53.1 99.2,54.1 98.3,56 98.8,57.4 
						98.8,57.4 98.2,59 97.2,57.1 98.9,57.4 					"/>
					<polyline class="st16" points="96.6,55.6 96.1,53.9 98.3,50.5 95.6,51.3 93,51.5 94.1,49 96.9,47 101.1,50.1 100.9,53.1 
						98.3,50.2 99.6,54.4 96.1,53.9 					"/>
					<line class="st16" x1="112.2" y1="61.8" x2="108.3" y2="64.3"/>
					<line class="st16" x1="113.4" y1="62" x2="121.5" y2="64.3"/>
				</g>
				<g>
					<polyline class="st16" points="114.6,35.6 112.9,38.1 110.6,40.5 118.2,39 120.1,40.3 120.4,37.1 117,36.1 118.2,39 
						114.6,42.6 117,43 113.7,45.5 110.2,43.8 109,46.5 110.1,48.8 111,51.2 106.5,53.4 101,49.9 103.3,47.4 100.5,46.6 103.6,44.9 
						105.7,43.6 107,46 105.1,50.2 109.1,46.4 106.5,40 102.4,40.2 99.6,43.4 103.5,45 102.4,40.4 99.7,37.6 101.2,35.6 103.5,35.4 
						106.3,36.5 108.9,35.1 110.1,37.4 106.5,40 105.7,43.6 103.3,47.4 105.1,50.2 103.2,52.5 					"/>
					<polyline class="st16" points="100.4,46.3 96.8,46.8 98.2,50.4 94.1,49 95.5,51.2 96,53.9 93.1,51.4 91.2,48.1 92.9,47.1 
						94.1,44.3 93,43.4 91.1,43.6 93,40.2 96.8,43.4 98.1,41 95.3,38.3 99.7,37.7 99.6,43.6 96.6,46.8 94.3,44 97,43.4 95.2,38.6 
						94.8,35.7 96.8,34.1 94.4,33.8 91,35.1 89.1,38.3 85.7,37.1 86.7,35.1 85.1,33.4 82.7,36.6 84.4,36 85.3,40.5 85.5,43.1 
						81.1,43.2 81.4,39.9 85.5,40.5 89.1,38.1 					"/>
					<polyline class="st16" points="79.6,51.6 83.8,52.1 86.1,51.9 88,54.6 86,56.5 82.7,55.8 80,54.1 79.6,51.6 					"/>
					<polyline class="st16" points="91.6,39.9 89.1,38.1 90.7,43.8 88.5,46.5 85.6,43.2 83.7,46.6 85.7,49.4 90.3,50.4 91.2,48.1 
						88.7,46.8 84.1,46.6 81,46.6 					"/>
					<polyline class="st16" points="76.7,50.2 73.4,50.5 75.4,52.8 72.9,55.6 70,53.5 70.5,50.1 67.1,49.8 64.2,51.9 66.8,53.4 
						68.3,51.8 67.5,56.4 63.3,54.2 63.1,55.4 63.7,57.1 65,59.3 68,59.6 70.8,58.4 67.5,56.4 70,53.5 70.8,58.4 74.3,58.4 
						77.1,56.3 75.4,52.8 79.6,51.6 86,56.5 86.4,59.9 84.7,62.2 82.1,61.6 80.8,59.9 83.1,58.5 84.7,62.2 83.4,64.1 81.1,65.7 
						77.8,65.8 79.9,62.1 77.4,62.5 76.6,60.6 79.1,58.2 82.7,55.8 83.1,58.5 82.1,61.6 79.9,62 					"/>
				</g>
				<polyline class="st16" points="76.3,31.8 75.4,32.4 75.3,35.7 73.8,37.4 71.9,37.7 73.7,40.1 74.4,42.8 72.2,44 71.5,41.9 
					68.8,43.6 68.4,46 66.6,46.2 68.8,43.6 72.2,44 73.7,40.1 77.5,40 78.4,42.3 78.1,44.7 75.6,44.9 77.6,39.8 79.1,35.8 
					75.3,35.7 77.3,39.9 81.5,39.9 79.1,35.8 82.8,36.6 81.5,39.9 78.6,42.2 81.1,43.2 85.3,40.5 91.1,43.6 85.5,43.1 81,46.5 
					83.8,52.1 85.8,49.4 86.1,52 90.3,50.4 87.8,54.6 93,51.5 90.3,50.4 88.5,46.5 85.8,49.4 				"/>
				<g>
					<polyline class="st16" points="91,43.6 93,46.9 94.1,49 91.2,48.1 90.9,43.5 91.6,39.9 92.9,40.2 95.3,38.3 91.2,35.1 
						86.6,35.1 84.3,36 85.8,37 91,34.9 94.6,35.7 99.8,37.6 96.8,34.1 100.3,34.4 101,35.4 102.1,34.4 103.6,35.2 102.4,40.2 
						97.9,41 99.8,37.6 106.3,36.4 106.4,40 108.9,35.1 110.7,35.1 112.9,37.9 114.6,42.4 117.1,36 114.6,35.3 110.9,35.1 110,37.4 
											"/>
					<path class="st16" d="M91.6,39.9"/>
					<polyline class="st16" points="106.7,40.2 110.5,40.6 110.2,43.7 105.7,43.6 102.5,40.5 106.2,36.6 110.1,37.7 					"/>
				</g>
				<polyline class="st16" points="70.5,50.1 73.3,50.4 72.9,55.5 74.2,58.3 72.5,61.5 73.7,63.5 76.6,60.6 80.8,59.9 79.1,58.2 
					77.1,56.4 80,54.1 79.1,58.2 79.8,62 81.1,65.7 83.8,67.4 83.7,69.8 81.5,68.5 81.1,65.7 77.7,69.2 75.4,67 77.8,65.8 
					77.4,62.5 74.1,65.7 73.8,68.9 74.1,70.2 77.2,71.6 77.7,69.2 80.7,71.6 79.9,74.6 77.1,75.4 75.5,77.3 75.3,72.6 77.2,71.6 
					80.7,71.6 81.5,68.5 77.8,65.7 73.7,63.5 74.1,65.7 75.4,67 74.1,70.2 77.7,69.2 				"/>
				<polyline class="st16" points="113.2,50.8 112.1,49.2 110,48.8 113.9,47.1 111,46.9 108.9,46.4 107,46.1 103.2,47.5 103.5,45 
									"/>
				<polyline class="st16" points="108.5,50.9 105,50.2 101.1,49.7 100.4,46.4 99.6,43.6 97,43.4 96.8,46.8 93,46.9 88.5,46.5 				
					"/>
				<polyline class="st16" points="64.1,51.8 63.3,54.1 66.8,53.4 67.5,56.3 63.7,57.1 				"/>
				<polyline class="st16" points="36.2,36.1 34.4,35.5 32,37.8 33.7,39 				"/>
				<polyline class="st16" points="117.4,48.8 119.4,47.9 119.3,45.7 117.4,48.8 				"/>
			</g>
			<g>
				<circle class="st17" cx="20.6" cy="38.3" r="0.8"/>
				<circle class="st17" cx="25.7" cy="35.1" r="0.6"/>
				<circle class="st17" cx="31.5" cy="35.3" r="0.7"/>
				<circle class="st17" cx="27.3" cy="45.7" r="0.6"/>
				<circle class="st17" cx="31.9" cy="40.8" r="0.6"/>
				<circle class="st17" cx="39.7" cy="37.1" r="0.6"/>
				<circle class="st17" cx="58.7" cy="33.8" r="0.7"/>
				<circle class="st17" cx="39.5" cy="34.9" r="0.7"/>
				<circle class="st17" cx="43" cy="60.6" r="0.7"/>
				<circle class="st17" cx="77.1" cy="75.4" r="0.7"/>
				<circle class="st17" cx="67.5" cy="56.3" r="0.7"/>
				<circle class="st17" cx="79.1" cy="58.2" r="0.8"/>
				<circle class="st17" cx="74.3" cy="58.4" r="0.7"/>
				<circle class="st17" cx="63.7" cy="57.1" r="0.7"/>
				<circle class="st17" cx="70.8" cy="58.4" r="0.7"/>
				<circle class="st17" cx="112.1" cy="76.4" r="0.3"/>
				<circle class="st17" cx="121.2" cy="77.9" r="0.3"/>
				<circle class="st17" cx="122.8" cy="65.4" r="0.7"/>
				<circle class="st17" cx="116.5" cy="70.6" r="0.7"/>
				<circle class="st17" cx="112.1" cy="63.2" r="0.7"/>
				<circle class="st17" cx="109" cy="57.7" r="0.7"/>
				<circle class="st17" cx="96.8" cy="46.9" r="0.7"/>
				<circle class="st17" cx="99.3" cy="54.1" r="0.7"/>
				<circle class="st17" cx="99.8" cy="37.6" r="0.7"/>
				<circle class="st17" cx="117.1" cy="36.1" r="0.7"/>
				<circle class="st17" cx="106.2" cy="36.4" r="0.7"/>
				<circle class="st17" cx="120.3" cy="36.8" r="0.7"/>
				<circle class="st17" cx="75.3" cy="35.6" r="0.7"/>
				<circle class="st17" cx="113.7" cy="45.5" r="0.7"/>
				<circle class="st17" cx="86" cy="72.2" r="0.7"/>
				<circle class="st17" cx="55.9" cy="36.9" r="0.7"/>
				<circle class="st17" cx="66.6" cy="46.2" r="0.7"/>
				<circle class="st17" cx="71.9" cy="37.7" r="0.6"/>
				<circle class="st17" cx="73.8" cy="37.4" r="0.7"/>
				<circle class="st17" cx="73.6" cy="40.2" r="0.7"/>
				<circle class="st17" cx="78" cy="44.7" r="0.7"/>
				<circle class="st17" cx="89.1" cy="38.1" r="0.7"/>
				<circle class="st17" cx="100.4" cy="46.5" r="0.7"/>
				<circle class="st17" cx="110.6" cy="40.5" r="0.7"/>
				<circle class="st17" cx="79.1" cy="35.8" r="0.7"/>
				<circle class="st17" cx="86.6" cy="70.4" r="0.3"/>
				<circle class="st17" cx="115" cy="64.3" r="0.3"/>
				<circle class="st17" cx="108.3" cy="64.3" r="0.3"/>
				<circle class="st17" cx="112" cy="72.9" r="0.3"/>
				<circle class="st17" cx="122.3" cy="72" r="0.3"/>
				<circle class="st17" cx="115.3" cy="73.9" r="0.7"/>
				<circle class="st17" cx="106.5" cy="53.4" r="0.7"/>
				<circle class="st17" cx="109.9" cy="53.7" r="0.6"/>
				<circle class="st17" cx="98.2" cy="59" r="0.3"/>
				<circle class="st17" cx="68.4" cy="46" r="0.6"/>
				<circle class="st17" cx="72.9" cy="55.6" r="0.7"/>
				<circle class="st17" cx="85.7" cy="49.4" r="0.4"/>
				<circle class="st17" cx="83.7" cy="69.8" r="0.3"/>
				<circle class="st17" cx="77.1" cy="71.6" r="0.3"/>
				<circle class="st17" cx="72.5" cy="61.4" r="0.3"/>
				<circle class="st17" cx="80" cy="54.1" r="0.4"/>
				<circle class="st17" cx="83.1" cy="58.5" r="0.3"/>
				<circle class="st17" cx="82.1" cy="61.6" r="0.3"/>
				<circle class="st17" cx="66.8" cy="53.4" r="0.3"/>
				<circle class="st17" cx="63.1" cy="55.4" r="0.3"/>
				<circle class="st17" cx="68.3" cy="51.8" r="0.3"/>
				<circle class="st17" cx="63.3" cy="54.2" r="0.6"/>
				<circle class="st17" cx="70" cy="53.5" r="0.7"/>
				<circle class="st17" cx="80.8" cy="59.9" r="0.3"/>
				<circle class="st17" cx="82.7" cy="55.8" r="0.4"/>
				<circle class="st17" cx="83.8" cy="67.4" r="0.3"/>
				<circle class="st17" cx="83.4" cy="64" r="0.3"/>
				<circle class="st17" cx="74.1" cy="65.7" r="0.5"/>
				<circle class="st17" cx="77.7" cy="69.2" r="0.8"/>
				<circle class="st17" cx="83.8" cy="52.1" r="0.7"/>
				<circle class="st17" cx="75.4" cy="52.8" r="0.7"/>
				<circle class="st17" cx="79.8" cy="62" r="0.7"/>
				<circle class="st17" cx="86" cy="56.5" r="0.7"/>
				<circle class="st17" cx="88.5" cy="46.5" r="0.7"/>
				<circle class="st17" cx="94.4" cy="33.8" r="0.3"/>
				<circle class="st17" cx="93.7" cy="31.5" r="0.4"/>
				<circle class="st17" cx="85" cy="33.5" r="0.3"/>
				<circle class="st17" cx="76.3" cy="31.8" r="0.6"/>
				<circle class="st17" cx="85.3" cy="40.5" r="0.3"/>
				<circle class="st17" cx="85.5" cy="43.1" r="0.7"/>
				<circle class="st17" cx="75.4" cy="32.4" r="0.4"/>
				<circle class="st17" cx="84.3" cy="36" r="0.4"/>
				<circle class="st17" cx="107.3" cy="60.7" r="0.3"/>
				<circle class="st17" cx="96.6" cy="55.6" r="0.3"/>
				<circle class="st17" cx="93" cy="51.5" r="0.7"/>
				<circle class="st17" cx="91.6" cy="39.9" r="0.4"/>
				<circle class="st17" cx="93" cy="43.4" r="0.3"/>
				<circle class="st17" cx="91.2" cy="48.1" r="0.3"/>
				<circle class="st17" cx="112.1" cy="49.2" r="0.3"/>
				<circle class="st17" cx="119.3" cy="45.7" r="0.3"/>
				<circle class="st17" cx="98.8" cy="57.4" r="0.3"/>
				<circle class="st17" cx="73.8" cy="68.9" r="0.3"/>
				<circle class="st17" cx="77.4" cy="62.5" r="0.3"/>
				<circle class="st17" cx="81.1" cy="65.7" r="0.3"/>
				<circle class="st17" cx="76.6" cy="60.6" r="0.3"/>
				<circle class="st17" cx="68" cy="59.6" r="0.7"/>
				<circle class="st17" cx="100.9" cy="53.1" r="0.3"/>
				<circle class="st17" cx="107" cy="46" r="0.3"/>
				<circle class="st17" cx="103.5" cy="44.9" r="0.7"/>
				<circle class="st17" cx="101" cy="49.8" r="0.7"/>
				<circle class="st17" cx="106.5" cy="40" r="0.3"/>
				<circle class="st17" cx="105.7" cy="43.6" r="0.7"/>
				<circle class="st17" cx="98.1" cy="41" r="0.3"/>
				<circle class="st17" cx="99.6" cy="43.5" r="0.3"/>
				<circle class="st17" cx="94.1" cy="49" r="0.4"/>
				<circle class="st17" cx="98.3" cy="56" r="0.3"/>
				<circle class="st17" cx="97.3" cy="57.2" r="0.3"/>
				<circle class="st17" cx="94.1" cy="44.1" r="0.7"/>
				<circle class="st17" cx="98.2" cy="50.4" r="0.8"/>
				<circle class="st17" cx="86.6" cy="35.1" r="0.4"/>
				<circle class="st17" cx="75.6" cy="44.9" r="0.4"/>
				<circle class="st17" cx="75.5" cy="77.3" r="0.4"/>
				<circle class="st17" cx="79.9" cy="74.6" r="0.7"/>
				<circle class="st17" cx="75.4" cy="67" r="0.8"/>
				<circle class="st17" cx="74.1" cy="70.1" r="0.7"/>
				<circle class="st17" cx="84.7" cy="62.2" r="0.7"/>
				<circle class="st17" cx="77.8" cy="65.8" r="0.7"/>
				<circle class="st17" cx="80.5" cy="71.5" r="0.7"/>
				<circle class="st17" cx="75.3" cy="72.7" r="0.7"/>
				<circle class="st17" cx="95.6" cy="51.3" r="0.4"/>
				<circle class="st17" cx="108.5" cy="50.9" r="0.3"/>
				<circle class="st17" cx="121.2" cy="38.3" r="0.3"/>
				<circle class="st17" cx="119" cy="35.6" r="0.3"/>
				<circle class="st17" cx="110.7" cy="35.1" r="0.3"/>
				<circle class="st17" cx="112.9" cy="38.1" r="0.7"/>
				<circle class="st17" cx="114.6" cy="35.6" r="0.7"/>
				<circle class="st17" cx="103.6" cy="35.3" r="0.8"/>
				<circle class="st17" cx="110.2" cy="37.5" r="0.7"/>
				<circle class="st17" cx="113.9" cy="47.1" r="0.3"/>
				<circle class="st17" cx="115.3" cy="57.3" r="0.3"/>
				<circle class="st17" cx="101.2" cy="35.6" r="0.7"/>
				<circle class="st17" cx="113.2" cy="50.8" r="0.3"/>
				<circle class="st17" cx="109" cy="46.5" r="0.3"/>
				<circle class="st17" cx="102.1" cy="34.4" r="0.3"/>
				<circle class="st17" cx="100.3" cy="34.4" r="0.3"/>
				<circle class="st17" cx="114.7" cy="47.9" r="0.3"/>
				<circle class="st17" cx="116" cy="58" r="0.3"/>
				<circle class="st17" cx="117.5" cy="48.8" r="0.7"/>
				<circle class="st17" cx="108.9" cy="35.1" r="0.7"/>
				<circle class="st17" cx="103.3" cy="47.4" r="0.3"/>
				<circle class="st17" cx="103.2" cy="52.5" r="0.7"/>
				<circle class="st17" cx="96.1" cy="53.9" r="0.7"/>
				<circle class="st17" cx="112.2" cy="61.8" r="0.3"/>
				<circle class="st17" cx="105.1" cy="50.2" r="0.7"/>
				<circle class="st17" cx="110.2" cy="43.8" r="0.7"/>
				<circle class="st17" cx="111" cy="46.9" r="0.7"/>
				<circle class="st17" cx="108" cy="55.3" r="0.3"/>
				<circle class="st17" cx="119.4" cy="47.9" r="0.3"/>
				<circle class="st17" cx="107.7" cy="63.1" r="0.3"/>
				<circle class="st17" cx="117" cy="43" r="0.3"/>
				<circle class="st17" cx="120.1" cy="40.3" r="0.7"/>
				<circle class="st17" cx="118.2" cy="38.9" r="0.7"/>
				<circle class="st17" cx="110.1" cy="48.8" r="0.6"/>
				<circle class="st17" cx="81.1" cy="43.2" r="0.3"/>
				<circle class="st17" cx="92.9" cy="40.2" r="0.7"/>
				<circle class="st17" cx="94.7" cy="35.7" r="0.6"/>
				<circle class="st17" cx="81.4" cy="39.9" r="0.7"/>
				<circle class="st17" cx="78.4" cy="42.3" r="0.5"/>
				<circle class="st17" cx="95.3" cy="38.3" r="0.7"/>
				<circle class="st17" cx="83.8" cy="46.6" r="0.7"/>
				<circle class="st17" cx="74.4" cy="42.8" r="0.7"/>
				<circle class="st17" cx="77.1" cy="56.4" r="0.7"/>
				<circle class="st17" cx="76.8" cy="50.3" r="0.7"/>
				<circle class="st17" cx="64.2" cy="51.9" r="0.7"/>
				<circle class="st17" cx="73.3" cy="50.4" r="0.7"/>
				<circle class="st17" cx="90.3" cy="50.4" r="0.7"/>
				<circle class="st17" cx="93" cy="46.9" r="0.7"/>
				<circle class="st17" cx="87.8" cy="54.6" r="0.7"/>
				<circle class="st17" cx="79.6" cy="51.6" r="0.7"/>
				<circle class="st17" cx="86.4" cy="59.9" r="0.7"/>
				<circle class="st17" cx="91" cy="43.6" r="0.7"/>
				<circle class="st17" cx="86.1" cy="51.9" r="0.7"/>
				<circle class="st17" cx="86" cy="37.1" r="0.7"/>
				<circle class="st17" cx="77.5" cy="40" r="0.7"/>
				<circle class="st17" cx="81" cy="46.5" r="0.7"/>
				<circle class="st17" cx="82.7" cy="36.6" r="0.7"/>
				<circle class="st17" cx="91" cy="35.1" r="0.7"/>
				<circle class="st17" cx="71.5" cy="41.9" r="0.6"/>
				<circle class="st17" cx="72.2" cy="44" r="0.7"/>
				<circle class="st17" cx="68.4" cy="41.2" r="0.7"/>
				<circle class="st17" cx="68.8" cy="43.5" r="0.6"/>
				<circle class="st17" cx="67.2" cy="49.9" r="0.7"/>
				<circle class="st17" cx="65" cy="59.3" r="0.7"/>
				<circle class="st17" cx="73.8" cy="63.7" r="0.7"/>
				<circle class="st17" cx="113.3" cy="62.1" r="0.3"/>
				<circle class="st17" cx="118.5" cy="74.1" r="0.6"/>
				<circle class="st17" cx="119.7" cy="76.6" r="0.3"/>
				<circle class="st17" cx="118.6" cy="76.4" r="0.4"/>
				<circle class="st17" cx="115.9" cy="76.5" r="0.3"/>
				<circle class="st17" cx="125.3" cy="66.5" r="0.4"/>
				<circle class="st17" cx="120.1" cy="71" r="0.7"/>
				<circle class="st17" cx="121.5" cy="64.3" r="0.3"/>
				<circle class="st17" cx="123.2" cy="69" r="0.3"/>
				<circle class="st17" cx="119.3" cy="69.2" r="0.3"/>
				<circle class="st17" cx="124.2" cy="72.1" r="0.6"/>
				<circle class="st17" cx="123.4" cy="77.2" r="0.7"/>
				<circle class="st17" cx="102.4" cy="40.2" r="0.7"/>
				<circle class="st17" cx="111" cy="51.2" r="0.7"/>
				<circle class="st17" cx="123.5" cy="74.5" r="0.7"/>
				<circle class="st17" cx="114.6" cy="42.6" r="0.7"/>
				<circle class="st17" cx="96.8" cy="34.1" r="0.7"/>
				<circle class="st17" cx="44.7" cy="76" r="0.7"/>
				<circle class="st17" cx="52.8" cy="67" r="0.7"/>
				<circle class="st17" cx="48.3" cy="62" r="0.7"/>
				<circle class="st17" cx="40.4" cy="41" r="0.7"/>
				<circle class="st17" cx="39.7" cy="46.8" r="0.7"/>
				<circle class="st17" cx="30.3" cy="53.7" r="0.7"/>
				<circle class="st17" cx="38.1" cy="41.6" r="0.3"/>
				<circle class="st17" cx="26.9" cy="50.1" r="0.7"/>
				<circle class="st17" cx="43.6" cy="35.7" r="0.3"/>
				<circle class="st17" cx="31.6" cy="45" r="0.3"/>
				<circle class="st17" cx="57.4" cy="35.8" r="0.3"/>
				<circle class="st17" cx="57" cy="33.2" r="0.3"/>
				<circle class="st17" cx="54.1" cy="31.5" r="0.3"/>
				<circle class="st17" cx="60.9" cy="31.2" r="0.7"/>
				<circle class="st17" cx="61.7" cy="34.1" r="0.7"/>
				<circle class="st17" cx="35.8" cy="43.6" r="0.3"/>
				<circle class="st17" cx="40.9" cy="36.1" r="0.3"/>
				<circle class="st17" cx="26.2" cy="47.2" r="0.6"/>
				<circle class="st17" cx="32.6" cy="47.8" r="0.3"/>
				<circle class="st17" cx="29.6" cy="45.6" r="0.3"/>
				<circle class="st17" cx="28.1" cy="43.3" r="0.6"/>
				<circle class="st17" cx="28.1" cy="40.2" r="0.3"/>
				<circle class="st17" cx="22.1" cy="37.9" r="0.4"/>
				<circle class="st17" cx="22.6" cy="36.5" r="0.6"/>
				<circle class="st17" cx="33.7" cy="39" r="0.3"/>
				<circle class="st17" cx="24.4" cy="35" r="0.4"/>
				<circle class="st17" cx="36.2" cy="36.1" r="0.5"/>
				<circle class="st17" cx="36.2" cy="36.1" r="0.4"/>
				<circle class="st17" cx="34.4" cy="35.5" r="0.3"/>
				<circle class="st17" cx="27.6" cy="38.4" r="0.3"/>
				<circle class="st17" cx="25.6" cy="37.3" r="0.3"/>
				<circle class="st17" cx="28.2" cy="35.5" r="0.7"/>
				<circle class="st17" cx="41" cy="42.7" r="0.3"/>
				<circle class="st17" cx="34.7" cy="45.2" r="0.3"/>
				<circle class="st17" cx="45.6" cy="60.3" r="0.3"/>
				<circle class="st17" cx="48.1" cy="65.2" r="0.3"/>
				<circle class="st17" cx="49.1" cy="69.8" r="0.3"/>
				<circle class="st17" cx="42.8" cy="71.6" r="0.7"/>
				<circle class="st17" cx="46.4" cy="79.6" r="0.7"/>
				<circle class="st17" cx="46.7" cy="74.3" r="0.7"/>
				<circle class="st17" cx="50" cy="74.5" r="0.7"/>
				<circle class="st17" cx="46.3" cy="64.8" r="0.3"/>
				<circle class="st17" cx="41.3" cy="59" r="0.3"/>
				<circle class="st17" cx="51" cy="68.1" r="0.3"/>
				<circle class="st17" cx="43.3" cy="78.1" r="0.3"/>
				<circle class="st17" cx="45.7" cy="84.8" r="0.3"/>
				<circle class="st17" cx="43.9" cy="79.8" r="0.3"/>
				<circle class="st17" cx="42.6" cy="74.3" r="0.7"/>
				<circle class="st17" cx="39" cy="66.4" r="0.3"/>
				<circle class="st17" cx="41" cy="66.7" r="0.3"/>
				<circle class="st17" cx="43" cy="63" r="0.3"/>
				<circle class="st17" cx="53.9" cy="69.5" r="0.3"/>
				<circle class="st17" cx="44.4" cy="59.2" r="0.3"/>
				<circle class="st17" cx="39" cy="61" r="0.3"/>
				<circle class="st17" cx="35.8" cy="58" r="0.3"/>
				<circle class="st17" cx="34" cy="56.8" r="0.3"/>
				<circle class="st17" cx="29.3" cy="54.6" r="0.3"/>
				<circle class="st17" cx="31.9" cy="51.9" r="0.3"/>
				<circle class="st17" cx="29" cy="52.4" r="0.3"/>
				<circle class="st17" cx="46" cy="67.6" r="0.7"/>
				<circle class="st17" cx="41.8" cy="65.2" r="0.7"/>
				<circle class="st17" cx="44.3" cy="65" r="0.3"/>
				<circle class="st17" cx="49.3" cy="72.2" r="0.7"/>
				<circle class="st17" cx="41" cy="69.2" r="0.7"/>
				<circle class="st17" cx="43.1" cy="67.7" r="0.7"/>
				<circle class="st17" cx="51" cy="64.4" r="0.7"/>
				<circle class="st17" cx="37.5" cy="36.4" r="0.7"/>
				<circle class="st17" cx="27.8" cy="48.1" r="0.3"/>
				<circle class="st17" cx="37.1" cy="47.3" r="0.3"/>
				<circle class="st17" cx="33.6" cy="49.8" r="0.8"/>
				<circle class="st17" cx="29.8" cy="47.4" r="0.7"/>
				<circle class="st17" cx="39.5" cy="39.4" r="0.3"/>
				<circle class="st17" cx="49" cy="39.2" r="0.3"/>
				<circle class="st17" cx="49.7" cy="36.3" r="0.6"/>
				<circle class="st17" cx="46.5" cy="41.9" r="0.3"/>
				
					<ellipse transform="matrix(0.9981 -6.147893e-02 6.147893e-02 0.9981 -2.1473 2.6934)" class="st17" cx="42.7" cy="36.2" rx="0.6" ry="0.6"/>
				<circle class="st17" cx="66.5" cy="41" r="0.3"/>
				<circle class="st17" cx="32.3" cy="55.6" r="0.3"/>
				<circle class="st17" cx="36.5" cy="57.5" r="0.3"/>
				<circle class="st17" cx="34" cy="55.5" r="0.3"/>
				<circle class="st17" cx="59.6" cy="31.4" r="0.3"/>
				<circle class="st17" cx="50.3" cy="35.3" r="0.3"/>
				<circle class="st17" cx="51.1" cy="31.5" r="0.3"/>
				<circle class="st17" cx="45" cy="41.2" r="0.3"/>
				<circle class="st17" cx="35.2" cy="55" r="0.3"/>
				<circle class="st17" cx="34.8" cy="41" r="0.6"/>
				<circle class="st17" cx="29.8" cy="41.9" r="0.3"/>
				<circle class="st17" cx="34.8" cy="38" r="0.3"/>
				<circle class="st17" cx="46.9" cy="39.9" r="0.7"/>
				<circle class="st17" cx="43.4" cy="43" r="0.3"/>
				<circle class="st17" cx="38.7" cy="63.2" r="0.7"/>
				<circle class="st17" cx="48.6" cy="67.6" r="0.8"/>
				<circle class="st17" cx="46" cy="71.2" r="0.7"/>
				<circle class="st17" cx="81.5" cy="68.5" r="0.7"/>
				<circle class="st17" cx="97" cy="43.4" r="0.7"/>
				<circle class="st17" cx="52.4" cy="71.1" r="0.7"/>
				<circle class="st17" cx="70.5" cy="50.1" r="0.8"/>
				<circle class="st17" cx="39.5" cy="44" r="0.6"/>
				<circle class="st17" cx="63.3" cy="31.9" r="0.7"/>
				<circle class="st17" cx="34.8" cy="47.3" r="0.3"/>
				<circle class="st17" cx="32" cy="37.8" r="0.6"/>
				<circle class="st17" cx="29.9" cy="50.6" r="0.8"/>
				<circle class="st17" cx="37.3" cy="39.1" r="0.6"/>
				<circle class="st17" cx="50" cy="42" r="0.7"/>
				<circle class="st17" cx="37" cy="45.6" r="0.7"/>
				<circle class="st17" cx="40.1" cy="54.1" r="0.7"/>
				<circle class="st17" cx="37.6" cy="50.3" r="0.7"/>
				<circle class="st17" cx="42" cy="45.7" r="0.7"/>
				<circle class="st17" cx="33.5" cy="43.8" r="0.6"/>
				<circle class="st17" cx="30.3" cy="44.2" r="0.6"/>
				<circle class="st17" cx="46.4" cy="43.7" r="0.7"/>
				<circle class="st17" cx="55.5" cy="32.1" r="0.3"/>
				<circle class="st17" cx="48.2" cy="76.1" r="0.3"/>
				<circle class="st17" cx="40" cy="59.8" r="0.3"/>
				<circle class="st17" cx="45.5" cy="83.4" r="0.3"/>
			</g>
		</g>
	</g>
	<g class="st1">
		<g>
			<path class="st11" d="M19.3,70.2c0,0,0.1,0.2,0.4,0.5"/>
			<path class="st12" d="M20.5,71.6c2.8,2.8,10,8.1,20.3,1.1"/>
			<path class="st11" d="M41.4,72.4c0.2-0.1,0.3-0.2,0.5-0.4"/>
		</g>
	</g>
</g>
<g id="Layer_3" class="st0">
	<g class="st1">
		<g>
			<path class="st18" d="M57.2,73.6c0,0,0.2,0.2,0.6,0.4"/>
			<path class="st19" d="M59.2,74.7c4.4,2.2,15,5.5,24.4-6.8"/>
			<path class="st18" d="M84.1,67.3c0.1-0.2,0.3-0.4,0.4-0.6"/>
		</g>
	</g>
	<g class="st1">
		<g>
			<path class="st18" d="M15.4,35.3c0,0,0.1,0.2,0.4,0.6"/>
			<path class="st19" d="M16.8,37.2c3.2,3.7,11.8,10.8,25.1,3"/>
			<path class="st18" d="M42.6,39.8c0.2-0.1,0.4-0.3,0.6-0.4"/>
		</g>
	</g>
	<rect x="28.3" y="23" class="st20" width="45.1" height="64"/>
	<rect x="32" y="26.7" class="st21" width="37.7" height="53.5"/>
	<circle class="st21" cx="50.8" cy="83.6" r="1.3"/>
	<text transform="matrix(1 0 0 1 1.4556 46.4141)" class="st22 st8 st23">$</text>
	<text transform="matrix(1 0 0 1 88.1436 74.7031)" class="st22 st8 st23">$</text>
	<g class="st1">
		<g>
			<path class="st24" d="M57.8,53.9v7c0,0.3-0.1,0.6-0.3,0.8c-0.2,0.2-0.5,0.3-0.8,0.3H45c-0.3,0-0.6-0.1-0.8-0.3
				c-0.2-0.2-0.3-0.5-0.3-0.8v-7c0-0.3,0.1-0.6,0.3-0.8c0.2-0.2,0.5-0.3,0.8-0.3h0.4v-2.3c0-1.5,0.5-2.8,1.6-3.8
				c1.1-1.1,2.3-1.6,3.8-1.6c1.5,0,2.8,0.5,3.8,1.6c1.1,1.1,1.6,2.3,1.6,3.8v2.3h0.4c0.3,0,0.6,0.1,0.8,0.3
				C57.7,53.3,57.8,53.6,57.8,53.9z M47.7,52.7h6.2v-2.3c0-0.9-0.3-1.6-0.9-2.2c-0.6-0.6-1.3-0.9-2.2-0.9c-0.9,0-1.6,0.3-2.2,0.9
				c-0.6,0.6-0.9,1.3-0.9,2.2V52.7z"/>
		</g>
	</g>
</g>
<g id="Layer_4">
	<g>
		<g>
			<g>
				<path class="st25" d="M32.6,56.7c3.5-9.8,4-25.5,18.7-25.8C64,30.7,67,44.8,70.8,56c4.9,14.9-7,25.6-18.7,25.8
					C40.1,82,27.6,70.7,32.6,56.7z"/>
				<path class="st25" d="M41.1,24.3c0-1.6,1.2-2.9,2.8-2.9l13.2-0.2c1.6,0,2.9,1.2,2.9,2.8l0,0.3c0,1.6-1.2,2.9-2.8,2.9L44,27.5
					c-1.6,0-2.9-1.2-2.9-2.8L41.1,24.3z"/>
				<path class="st25" d="M40.9,15.5c0-1.6,1.2-2.9,2.8-2.9L57,12.3c1.6,0,2.9,1.2,2.9,2.8l0,0.3c0,1.6-1.2,2.9-2.8,2.9l-13.2,0.2
					c-1.6,0-2.9-1.2-2.9-2.8L40.9,15.5z"/>
				<path class="st25" d="M40.8,6.7c0-1.6,1.2-2.9,2.8-2.9l13.2-0.2c1.6,0,2.9,1.2,2.9,2.8l0,0.3c0,1.6-1.2,2.9-2.8,2.9L43.7,9.8
					c-1.6,0-2.9-1.2-2.9-2.8L40.8,6.7z"/>
			</g>
		</g>
		<line class="st25" x1="30.5" y1="79.4" x2="21.1" y2="84.2"/>
		<line class="st25" x1="70.6" y1="79.4" x2="80" y2="84.2"/>
		<line class="st25" x1="51.7" y1="88.3" x2="51.7" y2="96.1"/>
	</g>
</g>
</svg>
